<?xml version="1.0" encoding="UTF-8" standalone="no"?>
<!-- Uploaded to: SVG Repo, www.svgrepo.com, Generator: SVG Repo Mixer Tools -->

<svg
   width="800"
   height="800"
   viewBox="0 0 9.2 9.2"
   style="clip-rule:evenodd;fill-rule:evenodd;image-rendering:optimizeQuality;shape-rendering:geometricPrecision;text-rendering:geometricPrecision"
   version="1.1"
   xml:space="preserve"
   id="svg2"
   sodipodi:docname="settings.svg"
   xmlns:inkscape="http://www.inkscape.org/namespaces/inkscape"
   xmlns:sodipodi="http://sodipodi.sourceforge.net/DTD/sodipodi-0.dtd"
   xmlns="http://www.w3.org/2000/svg"
   xmlns:svg="http://www.w3.org/2000/svg"><sodipodi:namedview
   id="namedview2"
   pagecolor="#ffffff"
   bordercolor="#000000"
   borderopacity="0.25"
   inkscape:showpageshadow="2"
   inkscape:pageopacity="0.0"
   inkscape:pagecheckerboard="0"
   inkscape:deskcolor="#d1d1d1"><inkscape:page
     x="0"
     y="0"
     width="9.1999998"
     height="9.1999998"
     id="page2"
     margin="0"
     bleed="0" /></sodipodi:namedview>

<defs
   id="defs1"><style
     type="text/css"
     id="style1">
   <![CDATA[
    .fil0 {fill:none}
    .fil1 {fill:#2554B0;fill-rule:nonzero}
    .fil2 {fill:#479DFF;fill-rule:nonzero}
   ]]>
  </style></defs>

<g
   id="Layer_x0020_1">

<rect
   class="fil0"
   height="9.1999998"
   width="9.1999998"
   id="rect1"
   x="0"
   y="0" />

<path
   class="fil1"
   d="M 3.4522224,7.9027886 C 3.3819503,7.8793646 3.3116782,7.8559405 3.2648301,7.8325165 3.194558,7.8090925 3.14771,7.7856684 3.0774379,7.7388204 L 1.9296603,8.4415413 0.75845866,7.2703397 1.4377556,6.1225621 C 1.4143316,6.05229 1.3909075,6.005442 1.3674835,5.9351699 v 0 C 1.3440595,5.8648978 1.3206354,5.8180497 1.2972114,5.7477776 L -0.01453441,5.4198411 V 3.7801589 L 1.2972114,3.4522224 C 1.3206354,3.3819503 1.3440595,3.3116782 1.3674835,3.2648301 1.3909075,3.194558 1.4143316,3.14771 1.4377556,3.0774379 L 0.75845866,1.9296603 1.9296603,0.75845866 3.0774379,1.4377556 C 3.14771,1.4143316 3.194558,1.3909075 3.2648301,1.3674835 3.3116782,1.3440595 3.3819503,1.3206354 3.4522224,1.2972114 L 3.7801589,-0.01453441 H 5.4198411 L 5.7477776,1.2972114 c 0.070272,0.023424 0.1171202,0.046848 0.1873923,0.070272 0.070272,0.023424 0.1171201,0.046848 0.1873922,0.070272 L 7.2703397,0.75845866 8.4415413,1.9296603 7.7388204,3.0774379 c 0.046848,0.070272 0.070272,0.1171201 0.093696,0.1873922 v 0 c 0.023424,0.046848 0.046848,0.1171202 0.070272,0.1873923 l 1.311746,0.3279365 V 5.4198411 L 7.9027886,5.7477776 C 7.8793646,5.8180497 7.8559405,5.8648978 7.8325165,5.9351699 7.8090925,6.005442 7.7856684,6.05229 7.7388204,6.1225621 L 8.4415413,7.2703397 7.2703397,8.4415413 6.1225621,7.7388204 C 6.05229,7.7856684 6.005442,7.8090925 5.9351699,7.8325165 v 0 c -0.070272,0.023424 -0.1171202,0.046848 -0.1873923,0.070272 L 5.4198411,9.2145344 H 3.7801589 Z m 0.070272,-0.702721 c 0.093696,0.023424 0.2108163,0.070272 0.3045124,0.093696 l 0.2108163,0.046848 0.2810884,1.1712016 H 4.8810884 L 5.1621768,7.3406118 5.3729931,7.2937637 c 0.093696,-0.023424 0.2108163,-0.070272 0.3045124,-0.093696 0.093696,-0.046848 0.1873923,-0.093696 0.2810884,-0.1639682 L 6.1459861,6.9424033 7.1532195,7.5748521 7.5748521,7.1532195 6.9424033,6.1459861 7.0360994,5.9585939 C 7.1063715,5.8648978 7.1532195,5.7712016 7.2000676,5.6775055 7.2234916,5.5603853 7.2703397,5.4666892 7.2937637,5.3729931 L 7.3406118,5.1621768 8.5118134,4.8810884 V 4.3189116 L 7.3406118,4.0378232 7.2937637,3.8270069 C 7.2703397,3.7333108 7.2234916,3.6161906 7.2000676,3.5224945 7.1532195,3.4287984 7.1063715,3.3351022 7.0360994,3.2414061 L 6.9424033,3.0540139 7.5748521,2.0233564 7.1532195,1.6251479 6.1459861,2.2575967 5.9585939,2.1404766 C 5.8648978,2.0936285 5.7712016,2.0467805 5.6775055,1.9999324 5.5603853,1.9765084 5.4666892,1.9296603 5.3729931,1.9062363 L 5.1621768,1.8359642 4.8810884,0.68818656 H 4.3189116 L 4.0378232,1.8359642 3.8270069,1.9062363 c -0.093696,0.023424 -0.2108163,0.070272 -0.3045124,0.093696 -0.093696,0.046848 -0.1873923,0.093696 -0.2810884,0.1405442 L 3.0540139,2.2575967 2.0233564,1.6251479 1.6251479,2.0233564 2.2575967,3.0540139 2.1404766,3.2414061 c -0.046848,0.093696 -0.093696,0.1873923 -0.1405442,0.2810884 -0.023424,0.093696 -0.070272,0.2108163 -0.093696,0.3045124 L 1.8359642,4.0378232 0.68818656,4.3189116 v 0.5621768 l 1.14777764,0.2810884 0.070272,0.2108163 c 0.023424,0.093696 0.070272,0.2108163 0.093696,0.3045124 0.046848,0.093696 0.093696,0.1873923 0.1405442,0.2810884 L 2.2575967,6.1459861 1.6251479,7.1532195 2.0233564,7.5748521 3.0540139,6.9424033 3.2414061,7.0360994 c 0.093696,0.070272 0.1873923,0.1171201 0.2810883,0.1639682 z"
   id="path1"
   style="stroke-width:2.3424" />

<path
   class="fil2"
   d="m 4.6,6.4642915 c -0.5104608,0 -0.9765336,-0.2219395 -1.3094428,-0.5548487 v 0 C 2.957648,5.5765336 2.7357085,5.1104608 2.7357085,4.6 2.7357085,4.0895392 2.957648,3.6234664 3.2905572,3.2905572 3.6234664,2.957648 4.0895392,2.7357085 4.6,2.7357085 c 0.5104608,0 0.9765336,0.2219395 1.3094428,0.5548487 v 0 C 6.242352,3.6234664 6.4642915,4.0895392 6.4642915,4.6 c 0,0.5104608 -0.2219395,0.9765336 -0.5548487,1.3094428 v 0 C 5.5765336,6.242352 5.1104608,6.4642915 4.6,6.4642915 Z M 3.75663,5.44337 C 3.9785695,5.6653094 4.2670908,5.7984731 4.6,5.7984731 c 0.3329092,0 0.6214305,-0.1331637 0.84337,-0.3551031 v 0 C 5.6653094,5.2214305 5.7984731,4.9329092 5.7984731,4.6 5.7984731,4.2670908 5.6653094,3.9785695 5.44337,3.75663 v 0 C 5.2214305,3.5346906 4.9329092,3.4015269 4.6,3.4015269 4.2670908,3.4015269 3.9785695,3.5346906 3.75663,3.75663 3.5346906,3.9785695 3.4015269,4.2670908 3.4015269,4.6 c 0,0.3329092 0.1331637,0.6214305 0.3551031,0.84337 z"
   id="path2"
   style="stroke-width:2.21939" />

</g>

</svg>
